<svg aria-hidden="true" style="position: absolute; width: 0; height: 0; overflow: hidden;" version="1.1" xmlns="http://www.w3.org/2000/svg" xmlns:xlink="http://www.w3.org/1999/xlink">
<defs>
<symbol id="icon-clear-sky-icon" viewBox="0 0 32 32">
<path fill="#fff" style="fill: var(--color1, #fff)" opacity="0.7" d="M0.5 15.881c0-2.092 0.41-4.095 1.23-6.009s1.921-3.562 3.302-4.942c1.395-1.395 3.049-2.502 4.963-3.322 1.928-0.834 3.937-1.251 6.029-1.251h2.502c0.342 0.096 0.513 0.301 0.513 0.615l0.102 1.928c0.082 2.775 1.080 5.141 2.994 7.096s4.238 2.987 6.973 3.097l1.805 0.144c0.355 0 0.533 0.171 0.533 0.513v2.133c0.014 2.803-0.67 5.4-2.051 7.793-1.367 2.379-3.24 4.266-5.619 5.66-2.365 1.381-4.949 2.071-7.752 2.071-2.133 0-4.163-0.41-6.091-1.23-1.914-0.82-3.562-1.921-4.942-3.302-1.367-1.395-2.461-3.049-3.281-4.963-0.807-1.914-1.21-3.924-1.21-6.029zM4.499 15.881c0 1.668 0.328 3.24 0.984 4.717 0.67 1.477 1.538 2.714 2.604 3.712 1.080 0.998 2.311 1.791 3.691 2.379 1.395 0.574 2.81 0.861 4.245 0.861 1.271 0 2.55-0.246 3.835-0.738 1.299-0.506 2.502-1.203 3.609-2.092 1.107-0.902 2.058-2.051 2.851-3.445 0.807-1.395 1.326-2.919 1.559-4.573-3.568-0.738-6.433-2.263-8.593-4.573-2.146-2.324-3.384-5.052-3.712-8.183-2.064 0.109-3.958 0.745-5.681 1.907-1.709 1.162-3.035 2.639-3.979 4.43-0.943 1.777-1.415 3.644-1.415 5.599z"></path>
</symbol>
<symbol id="icon-cloud-rain-icon" viewBox="0 0 32 32">
<path fill="#fff" style="fill: var(--color1, #fff)" opacity="0.7" d="M0 15.571v-0.027c0-1.686 0.524-3.19 1.572-4.512 1.057-1.322 2.393-2.169 4.006-2.543 0.447-1.996 1.467-3.632 3.062-4.908 1.604-1.285 3.441-1.928 5.51-1.928 1.449 0 2.771 0.319 3.965 0.957 0.729-0.775 1.586-1.381 2.57-1.818 0.984-0.447 2.001-0.67 3.049-0.67 1.385 0 2.666 0.346 3.842 1.039 1.185 0.684 2.119 1.618 2.803 2.803 0.693 1.176 1.039 2.456 1.039 3.842 0 1.796-0.556 3.395-1.668 4.799 0.419 0.893 0.629 1.873 0.629 2.939 0 1.285-0.31 2.479-0.93 3.582-0.62 1.094-1.467 1.973-2.543 2.639-1.066 0.656-2.242 1.003-3.527 1.039-0.191 0-0.287-0.082-0.287-0.246v-1.955c0-0.173 0.096-0.26 0.287-0.26 1.249-0.064 2.306-0.561 3.172-1.49 0.875-0.939 1.312-2.042 1.312-3.309 0-1.294-0.469-2.406-1.408-3.336s-2.060-1.395-3.363-1.395h-2.352c-0.173 0-0.26-0.087-0.26-0.26l-0.109-0.861c-0.164-1.577-0.848-2.898-2.051-3.965-1.194-1.076-2.584-1.613-4.17-1.613-1.604 0-2.999 0.538-4.184 1.613-1.176 1.066-1.841 2.388-1.996 3.965l-0.109 0.861c-0.046 0.137-0.155 0.205-0.328 0.205l-0.738 0.055c-1.23 0.146-2.256 0.665-3.076 1.559-0.82 0.884-1.23 1.941-1.23 3.172v0.055c0.018 0.018 0.032 0.027 0.041 0.027 0.009 1.24 0.447 2.32 1.313 3.24 0.41 0.428 0.857 0.752 1.34 0.971v0.027c0.547 0.283 1.148 0.447 1.805 0.492 0.164 0 0.246 0.082 0.246 0.246v1.955c0 0.164-0.082 0.246-0.246 0.246-0.711-0.036-1.408-0.178-2.092-0.424-1.103-0.365-2.060-0.962-2.871-1.791-0.802-0.839-1.372-1.814-1.709-2.926-0.21-0.684-0.314-1.381-0.314-2.092zM8.025 26.030c0-0.046 0.009-0.109 0.027-0.191s0.027-0.141 0.027-0.178l0.137-0.848c0.1-0.346 0.301-0.606 0.602-0.779s0.629-0.214 0.984-0.123c0.328 0.1 0.574 0.301 0.738 0.602s0.196 0.606 0.096 0.916l-0.205 0.875c-0.146 0.638-0.515 0.957-1.107 0.957-0.046 0-0.118-0.009-0.219-0.027-0.091-0.009-0.15-0.014-0.178-0.014-0.301-0.091-0.529-0.251-0.684-0.479-0.146-0.228-0.219-0.465-0.219-0.711zM9.105 21.723c0-0.346 0.114-0.633 0.342-0.861s0.515-0.342 0.861-0.342c0.346 0 0.633 0.114 0.861 0.342s0.342 0.515 0.342 0.861c0 0.337-0.114 0.62-0.342 0.848s-0.515 0.342-0.861 0.342c-0.337 0-0.615-0.118-0.834-0.355-0.246-0.228-0.369-0.506-0.369-0.834zM11.498 30.446c0-0.055 0.018-0.164 0.055-0.328l0.191-0.861c0.1-0.328 0.301-0.574 0.602-0.738s0.606-0.196 0.916-0.096c0.337 0.064 0.592 0.242 0.766 0.533s0.214 0.624 0.123 0.998l-0.191 0.848c-0.155 0.602-0.542 0.902-1.162 0.902-0.073 0-0.191-0.018-0.355-0.055-0.319-0.091-0.556-0.255-0.711-0.492-0.155-0.228-0.232-0.465-0.232-0.711zM12.646 26.208c0-0.337 0.114-0.62 0.342-0.848 0.228-0.219 0.515-0.328 0.861-0.328s0.633 0.109 0.861 0.328c0.228 0.228 0.342 0.51 0.342 0.848 0 0.346-0.114 0.633-0.342 0.861s-0.515 0.342-0.861 0.342c-0.328 0-0.611-0.118-0.848-0.355s-0.355-0.52-0.355-0.848zM13.549 22.899c0-0.137 0.014-0.264 0.041-0.383l0.328-1.312c0.1-0.346 0.301-0.606 0.602-0.779s0.611-0.214 0.93-0.123c0.346 0.1 0.602 0.296 0.766 0.588 0.173 0.292 0.21 0.597 0.109 0.916l-0.383 1.313c-0.118 0.401-0.319 0.674-0.602 0.82s-0.592 0.173-0.93 0.082c-0.292-0.055-0.515-0.201-0.67-0.438-0.146-0.237-0.21-0.465-0.191-0.684zM17.582 26.030c0-0.046 0.005-0.114 0.014-0.205 0.018-0.091 0.027-0.146 0.027-0.164l0.137-0.848c0.1-0.346 0.301-0.606 0.602-0.779s0.629-0.214 0.984-0.123c0.328 0.1 0.574 0.301 0.738 0.602 0.173 0.301 0.21 0.606 0.109 0.916l-0.205 0.875c-0.146 0.638-0.515 0.957-1.107 0.957-0.046 0-0.118-0.009-0.219-0.027-0.1-0.009-0.164-0.014-0.191-0.014-0.292-0.091-0.515-0.251-0.67-0.479-0.146-0.228-0.219-0.465-0.219-0.711zM18.662 21.723c0-0.346 0.114-0.633 0.342-0.861s0.515-0.342 0.861-0.342c0.346 0 0.633 0.114 0.861 0.342s0.342 0.515 0.342 0.861c0 0.337-0.114 0.62-0.342 0.848s-0.515 0.342-0.861 0.342c-0.346 0-0.629-0.118-0.848-0.355-0.237-0.219-0.355-0.497-0.355-0.834zM20.166 4.073c1.221 1.112 2.046 2.534 2.475 4.266h0.451c2.014 0 3.723 0.702 5.127 2.105 0.456-0.802 0.684-1.682 0.684-2.639 0-1.431-0.506-2.643-1.518-3.637-1.003-1.003-2.219-1.504-3.65-1.504-1.404 0-2.593 0.469-3.568 1.408z"></path>
</symbol>
<symbol id="icon-cloud2-icon" viewBox="0 0 32 32">
<path fill="#fff" style="fill: var(--color1, #fff)" opacity="0.7" d="M0 24.532c0 1.884 0.687 3.512 2.060 4.885 1.385 1.385 3.020 2.078 4.904 2.078h13.326c1.884 0 3.494-0.681 4.831-2.042 1.349-1.361 2.023-3.002 2.023-4.922 0-0.936-0.134-1.732-0.401-2.388 1.616-1.033 2.892-2.406 3.828-4.12 0.948-1.726 1.422-3.567 1.422-5.523 0-1.58-0.31-3.087-0.93-4.521-0.608-1.446-1.434-2.686-2.479-3.719-1.045-1.045-2.285-1.878-3.719-2.497s-2.935-0.93-4.503-0.93c-2.127 0-4.089 0.523-5.888 1.568-1.787 1.045-3.196 2.461-4.229 4.247-1.021 1.786-1.531 3.737-1.531 5.852v0.656c-1.957 1.118-3.245 2.734-3.865 4.849-1.47 0.462-2.649 1.282-3.536 2.461-0.875 1.179-1.313 2.534-1.313 4.065zM3.846 24.532c0-0.814 0.261-1.513 0.784-2.096s1.185-0.911 1.987-0.984l1.221-0.164c0.243 0 0.365-0.146 0.365-0.437l0.2-1.094c0.134-1.118 0.602-2.054 1.404-2.807 0.814-0.753 1.774-1.13 2.88-1.13 1.13 0 2.109 0.377 2.935 1.13 0.839 0.753 1.325 1.689 1.458 2.807l0.164 1.258c0.122 0.292 0.286 0.438 0.492 0.438h2.552c0.839 0 1.562 0.304 2.169 0.911 0.62 0.608 0.93 1.331 0.93 2.169 0 0.875-0.31 1.622-0.93 2.242-0.608 0.62-1.331 0.93-2.169 0.93h-13.326c-0.875 0-1.616-0.31-2.224-0.93-0.596-0.62-0.893-1.367-0.893-2.242zM12.45 12.1c0.134-2.127 0.954-3.913 2.461-5.359 1.519-1.446 3.336-2.169 5.451-2.169 2.163 0 3.998 0.772 5.505 2.315 1.519 1.543 2.279 3.415 2.279 5.615 0 1.361-0.328 2.625-0.984 3.792-0.656 1.154-1.549 2.090-2.68 2.807-1.142-0.948-2.461-1.422-3.956-1.422-0.571-1.701-1.574-3.056-3.008-4.065-1.422-1.009-3.032-1.513-4.831-1.513h-0.237z"></path>
</symbol>
<symbol id="icon-cloudly-icon" viewBox="0 0 32 32">
<path fill="#fff" style="fill: var(--color1, #fff)" opacity="0.7" d="M0 17.85c0 0.355 0.124 0.648 0.371 0.879s0.565 0.347 0.953 0.347h2.229c0.355 0 0.656-0.116 0.904-0.347 0.256-0.239 0.384-0.532 0.384-0.879 0-0.38-0.124-0.693-0.371-0.941s-0.553-0.372-0.916-0.372h-2.229c-0.388 0-0.706 0.124-0.953 0.372-0.248 0.239-0.371 0.553-0.371 0.941zM2.34 26.022c0 1.28 0.466 2.386 1.399 3.318 0.933 0.941 2.039 1.412 3.318 1.412h9.064c1.279 0 2.373-0.462 3.281-1.387 0.916-0.924 1.374-2.039 1.374-3.343 0-0.636-0.091-1.176-0.272-1.622 1.098-0.702 1.965-1.634 2.6-2.798 0.644-1.172 0.966-2.423 0.966-3.752 0-1.073-0.21-2.097-0.631-3.071-0.421-0.982-0.986-1.824-1.696-2.526-0.702-0.71-1.544-1.275-2.526-1.696-0.974-0.421-1.993-0.631-3.058-0.631-1.445 0-2.778 0.355-3.999 1.065-1.213 0.71-2.171 1.672-2.873 2.885-0.693 1.213-1.040 2.538-1.040 3.975v0.446c-1.321 0.751-2.192 1.849-2.613 3.294-0.999 0.314-1.8 0.871-2.402 1.672-0.594 0.801-0.891 1.721-0.891 2.761zM4.396 7.312c0 0.372 0.116 0.669 0.347 0.892l2.13 2.229c0.619 0.471 1.238 0.471 1.857 0 0.248-0.248 0.371-0.557 0.371-0.929 0-0.355-0.124-0.665-0.371-0.929l-2.179-2.167c-0.281-0.256-0.586-0.384-0.916-0.384-0.371 0-0.673 0.124-0.904 0.371-0.223 0.248-0.334 0.553-0.334 0.916zM4.953 26.022c0-0.553 0.177-1.028 0.532-1.424s0.805-0.619 1.35-0.669l0.817-0.111c0.173 0 0.26-0.099 0.26-0.297l0.124-0.743c0.091-0.759 0.413-1.395 0.966-1.907s1.205-0.768 1.956-0.768c0.768 0 1.432 0.256 1.994 0.768 0.57 0.512 0.9 1.147 0.991 1.907l0.111 0.854c0.083 0.198 0.19 0.297 0.322 0.297h1.746c0.57 0 1.061 0.206 1.473 0.619 0.421 0.413 0.631 0.904 0.631 1.473 0 0.594-0.21 1.102-0.631 1.523-0.413 0.421-0.904 0.631-1.473 0.631h-9.064c-0.594 0-1.094-0.21-1.498-0.631s-0.607-0.929-0.607-1.523zM10.797 17.577c0.091-1.445 0.648-2.658 1.672-3.64s2.254-1.473 3.69-1.473c1.469 0 2.72 0.524 3.752 1.573s1.548 2.32 1.548 3.814c0 0.924-0.227 1.783-0.681 2.575-0.446 0.784-1.052 1.42-1.82 1.907-0.776-0.644-1.672-0.966-2.687-0.966-0.388-1.156-1.065-2.076-2.031-2.761s-2.060-1.028-3.281-1.028h-0.161zM14.871 6.025c0 0.363 0.124 0.673 0.371 0.929 0.256 0.248 0.561 0.371 0.916 0.371 0.363 0 0.669-0.124 0.916-0.371 0.256-0.256 0.384-0.565 0.384-0.929v-3.096c0-0.347-0.128-0.636-0.384-0.867-0.248-0.239-0.553-0.359-0.916-0.359-0.355 0-0.66 0.12-0.916 0.359-0.248 0.231-0.371 0.52-0.371 0.867v3.096zM23.563 25.242c-0.231 0.239-0.347 0.537-0.347 0.892s0.12 0.665 0.359 0.929l2.167 2.142c0.553 0.561 1.172 0.561 1.857 0 0.231-0.223 0.347-0.52 0.347-0.891 0-0.355-0.116-0.648-0.347-0.879l-2.229-2.216c-0.239-0.223-0.541-0.334-0.904-0.334s-0.664 0.12-0.904 0.359zM23.216 9.479c0 0.371 0.12 0.689 0.359 0.953 0.239 0.239 0.537 0.359 0.891 0.359 0.363 0 0.665-0.12 0.904-0.359l2.229-2.229c0.231-0.223 0.347-0.52 0.347-0.892 0-0.363-0.128-0.669-0.384-0.916-0.248-0.248-0.553-0.371-0.916-0.371-0.347 0-0.648 0.128-0.904 0.384l-2.167 2.167c-0.239 0.239-0.359 0.541-0.359 0.904zM26.634 17.85c0 0.355 0.124 0.648 0.371 0.879s0.566 0.347 0.953 0.347h2.229c0.355 0 0.656-0.116 0.904-0.347 0.256-0.239 0.384-0.532 0.384-0.879 0-0.38-0.124-0.693-0.372-0.941s-0.553-0.372-0.916-0.372h-2.229c-0.388 0-0.706 0.124-0.953 0.372-0.248 0.239-0.371 0.553-0.371 0.941z"></path>
</symbol>
<symbol id="icon-rain-icon" viewBox="0 0 32 32">
<path fill="#fff" style="fill: var(--color1, #fff)" opacity="0.7" d="M0 14.771c0 1.702 0.495 3.219 1.484 4.551 0.999 1.322 2.297 2.226 3.895 2.711 0.133 0.029 0.257-0.010 0.371-0.114l1.769-2.183c-1.351 0-2.506-0.485-3.467-1.455s-1.441-2.14-1.441-3.509c0-1.284 0.428-2.397 1.284-3.338 0.856-0.951 1.921-1.479 3.196-1.584l0.799-0.1c0.162 0 0.243-0.067 0.243-0.2l0.114-0.842c0.19-1.674 0.894-3.058 2.111-4.152 1.227-1.103 2.673-1.655 4.337-1.655 1.674 0 3.129 0.556 4.365 1.669 1.246 1.103 1.945 2.482 2.097 4.137l0.114 0.885c0.038 0.171 0.147 0.257 0.328 0.257h2.468c1.37 0 2.535 0.48 3.495 1.441s1.441 2.121 1.441 3.481c0 1.265-0.428 2.373-1.284 3.324-0.856 0.942-1.907 1.488-3.153 1.641-0.181 0-0.428 0.029-0.742 0.086-0.295 0.029-0.504 0.143-0.628 0.342l-3.595 4.251c-0.219 0.276-0.304 0.594-0.257 0.956 0.057 0.361 0.219 0.651 0.485 0.87 0.162 0.19 0.447 0.285 0.856 0.285 0.399 0 0.709-0.176 0.927-0.528l3.224-3.709c1.893-0.19 3.491-1.008 4.793-2.454s1.954-3.134 1.954-5.065c0-1.027-0.2-2.007-0.599-2.939-0.39-0.932-0.923-1.731-1.598-2.397-0.666-0.675-1.465-1.213-2.397-1.612-0.923-0.399-1.897-0.599-2.925-0.599h-0.485c-0.504-2.016-1.584-3.666-3.238-4.95-1.645-1.293-3.529-1.94-5.649-1.94-1.417 0-2.753 0.304-4.009 0.913-1.246 0.599-2.297 1.441-3.153 2.525-0.856 1.075-1.431 2.302-1.726 3.681-1.712 0.38-3.11 1.255-4.194 2.625-1.075 1.36-1.612 2.925-1.612 4.694zM5.15 26.969c0 0.095 0.029 0.247 0.086 0.456 0.133 0.323 0.357 0.547 0.67 0.671 0.333 0.152 0.671 0.162 1.013 0.029s0.575-0.361 0.699-0.685c0.152-0.333 0.162-0.661 0.029-0.984s-0.366-0.542-0.699-0.656c-0.342-0.162-0.67-0.176-0.984-0.043s-0.547 0.371-0.699 0.713c-0.076 0.162-0.114 0.328-0.114 0.499zM7.961 23.259v0.157c0.029 0.342 0.181 0.628 0.457 0.856 0.342 0.19 0.656 0.285 0.942 0.285 0.342 0 0.651-0.166 0.927-0.499l3.538-4.209c0.219-0.266 0.319-0.599 0.3-0.999-0.038-0.323-0.181-0.594-0.428-0.813-0.238-0.219-0.499-0.328-0.785-0.328-0.086 0-0.157 0.005-0.214 0.014-0.352 0.067-0.637 0.233-0.856 0.499l-3.595 4.223c-0.19 0.219-0.285 0.49-0.285 0.813zM9.245 29.95c-0.076 0.143-0.114 0.304-0.114 0.485s0.038 0.342 0.114 0.485c0.124 0.323 0.347 0.561 0.67 0.713 0.162 0.076 0.328 0.114 0.499 0.114 0.19 0 0.347-0.038 0.471-0.114 0.352-0.143 0.59-0.352 0.713-0.628 0.152-0.333 0.162-0.671 0.029-1.013-0.124-0.342-0.347-0.575-0.671-0.699-0.333-0.152-0.675-0.162-1.027-0.029-0.342 0.133-0.571 0.361-0.685 0.685zM11.67 26.869v0.171c0.038 0.333 0.195 0.609 0.471 0.827 0.276 0.228 0.556 0.342 0.842 0.342 0.342 0 0.661-0.166 0.956-0.499l6.62-7.975c0.171-0.19 0.257-0.452 0.257-0.785v-0.185c-0.038-0.342-0.176-0.613-0.414-0.813s-0.504-0.3-0.799-0.3h-0.2c-0.352 0.019-0.633 0.176-0.842 0.471l-6.62 7.918c-0.181 0.266-0.271 0.542-0.271 0.827zM17.020 28.624c0 0.133 0.029 0.285 0.086 0.456 0.133 0.333 0.366 0.571 0.699 0.713 0.209 0.057 0.366 0.086 0.471 0.086 0.219 0 0.39-0.038 0.514-0.114 0.342-0.133 0.575-0.347 0.699-0.642 0.152-0.257 0.162-0.594 0.029-1.013-0.124-0.314-0.347-0.537-0.671-0.671l-0.542-0.143c-0.133 0.029-0.295 0.067-0.485 0.114-0.333 0.124-0.561 0.347-0.685 0.671-0.076 0.181-0.114 0.361-0.114 0.542z"></path>
</symbol>
<symbol id="icon-sun-cloud-icon" viewBox="0 0 32 32">
<path fill="#fff" style="fill: var(--color1, #fff)" opacity="0.7" d="M0 13.22c0-1.321 0.411-2.505 1.232-3.549 0.83-1.045 1.875-1.71 3.134-1.996 0.366-1.571 1.174-2.862 2.424-3.871 1.259-1.009 2.696-1.513 4.313-1.513 1.571 0 2.973 0.496 4.205 1.487 1.241 0.982 2.045 2.241 2.411 3.777h0.375c1.571 0 2.911 0.554 4.018 1.661 1.116 1.098 1.674 2.433 1.674 4.005 0 0.009-0.005 0.027-0.013 0.054 0 0.027 0 0.054 0 0.080 1.071 1.143 1.607 2.5 1.607 4.071 0 1.080-0.272 2.085-0.817 3.013-0.536 0.92-1.263 1.647-2.183 2.183-0.911 0.536-1.902 0.804-2.973 0.804-1.375 0-2.598-0.424-3.67-1.272-1.063-0.848-1.763-1.924-2.103-3.228h-8.156c-1.527-0.063-2.821-0.643-3.884-1.741-1.063-1.107-1.594-2.429-1.594-3.964zM1.942 13.22c0 1 0.344 1.87 1.031 2.612 0.696 0.732 1.531 1.121 2.504 1.165h8.103c0.054-0.036 0.107-0.054 0.161-0.054h1.393c0.045 0 0.085 0.018 0.121 0.054h3.067c0.973-0.045 1.808-0.433 2.504-1.165 0.697-0.741 1.045-1.612 1.045-2.612 0-1.009-0.375-1.88-1.125-2.612-0.75-0.741-1.634-1.112-2.652-1.112h-1.848c-0.134 0-0.201-0.067-0.201-0.201l-0.094-0.67c-0.125-1.241-0.656-2.281-1.594-3.121-0.938-0.848-2.022-1.272-3.254-1.272-1.268 0-2.366 0.42-3.295 1.259s-1.455 1.884-1.58 3.134l-0.080 0.67c0 0.134-0.076 0.201-0.228 0.201h-0.576c-0.964 0.107-1.772 0.513-2.424 1.219s-0.978 1.54-0.978 2.505zM10.795 26.091c-0.357-0.464-0.357-0.929 0-1.393l1.62-1.647c0.196-0.17 0.442-0.255 0.737-0.255 0.268 0 0.487 0.085 0.656 0.255s0.254 0.393 0.254 0.67c0 0.286-0.085 0.513-0.254 0.683l-1.634 1.688c-0.179 0.179-0.411 0.268-0.696 0.268-0.277 0-0.505-0.089-0.683-0.268zM15.643 18.925c0.304 0.768 0.795 1.388 1.473 1.862 0.687 0.473 1.451 0.71 2.29 0.71 1.107 0 2.045-0.397 2.813-1.192 0.777-0.795 1.165-1.754 1.165-2.879 0-0.554-0.089-1.054-0.268-1.5-0.473 0.875-1.138 1.585-1.996 2.13-0.848 0.545-1.781 0.835-2.799 0.871h-2.679zM18.429 26.332c0-0.268 0.094-0.491 0.281-0.67 0.196-0.179 0.429-0.268 0.696-0.268 0.259 0 0.496 0.098 0.71 0.295 0.179 0.179 0.268 0.393 0.268 0.643v2.344c0 0.268-0.098 0.5-0.295 0.696-0.188 0.196-0.415 0.295-0.683 0.295s-0.5-0.098-0.696-0.295c-0.188-0.196-0.281-0.429-0.281-0.696v-2.344zM24.723 23.72c0-0.259 0.089-0.478 0.268-0.656 0.188-0.179 0.415-0.268 0.683-0.268 0.277 0 0.5 0.085 0.67 0.255l1.688 1.647c0.188 0.205 0.281 0.433 0.281 0.683 0 0.268-0.098 0.495-0.295 0.683-0.188 0.196-0.42 0.295-0.696 0.295-0.295 0-0.531-0.089-0.71-0.268l-1.62-1.688c-0.179-0.205-0.268-0.433-0.268-0.683zM24.991 11.827c-0.179-0.188-0.268-0.42-0.268-0.697s0.089-0.5 0.268-0.67l1.62-1.688c0.196-0.179 0.433-0.268 0.71-0.268 0.268 0 0.505 0.089 0.71 0.268 0.188 0.214 0.281 0.455 0.281 0.723 0 0.25-0.094 0.478-0.281 0.683l-1.688 1.647c-0.179 0.179-0.402 0.268-0.67 0.268s-0.496-0.089-0.683-0.268zM27.321 17.425c0-0.268 0.089-0.496 0.268-0.683s0.402-0.281 0.67-0.281h2.317c0.277 0 0.513 0.094 0.71 0.281s0.295 0.415 0.295 0.683c0 0.277-0.098 0.513-0.295 0.71-0.196 0.188-0.433 0.281-0.71 0.281h-2.317c-0.268 0-0.491-0.094-0.67-0.281-0.179-0.196-0.268-0.433-0.268-0.71z"></path>
</symbol>
<symbol id="icon-sun-icon" viewBox="0 0 32 32">
<path fill="#fff" style="fill: var(--color1, #fff)" opacity="0.7" d="M0.333 16.126c0-0.355 0.123-0.656 0.369-0.902 0.255-0.237 0.547-0.355 0.875-0.355h2.98c0.337 0 0.615 0.123 0.834 0.369 0.228 0.246 0.342 0.542 0.342 0.889s-0.114 0.643-0.342 0.889c-0.219 0.237-0.497 0.355-0.834 0.355h-2.98c-0.337 0-0.629-0.123-0.875-0.369s-0.369-0.538-0.369-0.875zM4.503 26.229c0-0.337 0.114-0.633 0.342-0.889l2.146-2.078c0.219-0.228 0.506-0.342 0.861-0.342 0.346 0 0.633 0.109 0.861 0.328 0.237 0.219 0.355 0.497 0.355 0.834 0 0.355-0.118 0.665-0.355 0.93l-2.078 2.078c-0.592 0.465-1.189 0.465-1.791 0-0.228-0.246-0.342-0.533-0.342-0.861zM4.503 6.036c0-0.337 0.114-0.633 0.342-0.889 0.283-0.237 0.592-0.355 0.93-0.355 0.319 0 0.606 0.119 0.861 0.355l2.078 2.146c0.237 0.219 0.355 0.506 0.355 0.861 0 0.346-0.118 0.638-0.355 0.875-0.228 0.228-0.515 0.342-0.861 0.342-0.355 0-0.643-0.118-0.861-0.355l-2.146-2.078c-0.228-0.246-0.342-0.547-0.342-0.902zM8.222 16.126c0-1.358 0.342-2.62 1.025-3.787 0.684-1.176 1.609-2.105 2.775-2.789 1.176-0.684 2.443-1.025 3.801-1.025 1.021 0 2.001 0.205 2.939 0.615 0.939 0.401 1.745 0.943 2.42 1.627 0.684 0.674 1.226 1.481 1.627 2.42s0.602 1.919 0.602 2.939c0 1.367-0.342 2.634-1.025 3.801-0.674 1.167-1.595 2.092-2.762 2.775-1.167 0.675-2.434 1.012-3.801 1.012s-2.634-0.337-3.801-1.012c-1.167-0.684-2.092-1.609-2.775-2.775s-1.025-2.434-1.025-3.801zM10.697 16.126c0 1.422 0.497 2.639 1.49 3.65 1.003 1.003 2.215 1.504 3.637 1.504s2.634-0.501 3.637-1.504c1.012-1.012 1.518-2.229 1.518-3.65 0-1.404-0.506-2.602-1.518-3.596-1.003-0.993-2.215-1.49-3.637-1.49-1.413 0-2.62 0.497-3.623 1.49s-1.504 2.192-1.504 3.596zM14.579 27.46c0-0.346 0.119-0.638 0.355-0.875 0.246-0.237 0.542-0.355 0.889-0.355 0.355 0 0.652 0.118 0.889 0.355s0.355 0.529 0.355 0.875v2.898c0 0.355-0.123 0.656-0.369 0.902-0.237 0.246-0.529 0.369-0.875 0.369s-0.643-0.123-0.889-0.369c-0.237-0.246-0.355-0.547-0.355-0.902v-2.898zM14.579 4.86v-2.98c0-0.337 0.123-0.629 0.369-0.875s0.538-0.369 0.875-0.369c0.337 0 0.629 0.123 0.875 0.369s0.369 0.538 0.369 0.875v2.98c0 0.337-0.123 0.62-0.369 0.848-0.237 0.219-0.529 0.328-0.875 0.328s-0.643-0.109-0.889-0.328c-0.237-0.228-0.355-0.51-0.355-0.848zM22.632 24.083c0-0.337 0.109-0.611 0.328-0.82 0.219-0.228 0.492-0.342 0.82-0.342 0.355 0 0.647 0.114 0.875 0.342l2.133 2.078c0.237 0.255 0.355 0.551 0.355 0.889s-0.118 0.624-0.355 0.861c-0.583 0.456-1.167 0.456-1.75 0l-2.078-2.078c-0.219-0.246-0.328-0.556-0.328-0.93zM22.632 8.155c0-0.365 0.109-0.652 0.328-0.861l2.078-2.146c0.255-0.237 0.542-0.355 0.861-0.355 0.346 0 0.638 0.123 0.875 0.369 0.246 0.246 0.369 0.538 0.369 0.875 0 0.365-0.118 0.665-0.355 0.902l-2.133 2.078c-0.264 0.237-0.556 0.355-0.875 0.355-0.328 0-0.602-0.114-0.82-0.342-0.219-0.237-0.328-0.529-0.328-0.875zM26.269 17.014c-0.228-0.246-0.342-0.542-0.342-0.889s0.119-0.647 0.355-0.902c0.237-0.237 0.515-0.355 0.834-0.355h2.953c0.337 0 0.629 0.128 0.875 0.383 0.255 0.246 0.383 0.538 0.383 0.875s-0.128 0.629-0.383 0.875c-0.246 0.246-0.538 0.369-0.875 0.369h-2.953c-0.337 0-0.62-0.118-0.848-0.355z"></path>
</symbol>
<symbol id="icon-sun-wave-icon" viewBox="0 0 32 32">
<path fill="#fff" style="fill: var(--color1, #fff)" opacity="0.7" d="M0 16.984c0-0.346 0.132-0.643 0.397-0.889 0.246-0.246 0.547-0.369 0.902-0.369h3.008c0.346 0 0.638 0.123 0.875 0.369 0.246 0.246 0.369 0.542 0.369 0.889 0 0.365-0.123 0.67-0.369 0.916-0.237 0.246-0.529 0.369-0.875 0.369h-3.008c-0.365 0-0.674-0.123-0.93-0.369-0.246-0.246-0.369-0.551-0.369-0.916zM4.266 6.757c0-0.337 0.119-0.638 0.355-0.902 0.273-0.246 0.592-0.369 0.957-0.369 0.31 0 0.597 0.123 0.861 0.369l2.119 2.16c0.246 0.228 0.369 0.52 0.369 0.875 0 0.346-0.123 0.643-0.369 0.889-0.237 0.237-0.524 0.355-0.861 0.355-0.374 0-0.67-0.123-0.889-0.369l-2.188-2.105c-0.237-0.255-0.355-0.556-0.355-0.902zM8.066 16.984c0-1.030 0.205-2.019 0.615-2.967 0.419-0.957 0.975-1.777 1.668-2.461 0.702-0.693 1.531-1.244 2.488-1.654 0.957-0.419 1.955-0.629 2.994-0.629 1.395 0 2.689 0.351 3.883 1.053 1.194 0.693 2.137 1.631 2.83 2.816s1.039 2.465 1.039 3.842c0 0.219-0.014 0.424-0.041 0.615-0.41-0.246-0.88-0.369-1.408-0.369-0.355 0-0.706 0.073-1.053 0.219 0.009-0.1 0.014-0.255 0.014-0.465 0-1.422-0.515-2.634-1.545-3.637-1.030-1.012-2.27-1.518-3.719-1.518-1.44 0-2.675 0.506-3.705 1.518-1.021 1.003-1.531 2.215-1.531 3.637v0.26c-0.428 0.027-0.839 0.15-1.23 0.369-0.009 0.009-0.059 0.046-0.15 0.109s-0.182 0.132-0.273 0.205c-0.091 0.064-0.205 0.155-0.342 0.273-0.137 0.109-0.264 0.223-0.383 0.342-0.1-0.465-0.15-0.984-0.15-1.559zM8.107 22.316v-0.219c-0.009-0.137 0-0.296 0.027-0.479 0.073-0.52 0.278-1.016 0.615-1.49 0.191-0.237 0.324-0.387 0.396-0.451 0.009-0.027 0.027-0.055 0.055-0.082s0.046-0.046 0.055-0.055c0.036-0.018 0.096-0.068 0.178-0.15 0.027-0.036 0.064-0.073 0.109-0.109 0.055-0.036 0.091-0.064 0.109-0.082 0.073-0.073 0.141-0.123 0.205-0.15l0.246-0.164c0.21-0.137 0.451-0.205 0.725-0.205h0.041c0.146 0 0.273 0.014 0.383 0.041 0.046 0.018 0.109 0.050 0.191 0.096v0.014c0.21 0.091 0.374 0.232 0.492 0.424 0.128 0.182 0.191 0.383 0.191 0.602 0 0.246-0.068 0.451-0.205 0.615-0.091 0.128-0.201 0.242-0.328 0.342-0.027 0.009-0.059 0.023-0.096 0.041-0.027 0.018-0.046 0.027-0.055 0.027l-0.082 0.055c-0.055 0.046-0.105 0.087-0.15 0.123-0.036 0.036-0.087 0.091-0.15 0.164-0.064 0.064-0.118 0.128-0.164 0.191s-0.091 0.141-0.137 0.232c-0.036 0.082-0.059 0.164-0.068 0.246v0.219c0.055 0.219 0.109 0.392 0.164 0.52 0.1 0.201 0.264 0.415 0.492 0.643 0.018 0.027 0.137 0.15 0.355 0.369 1.258 1.139 1.846 2.356 1.764 3.65-0.027 0.437-0.132 0.857-0.314 1.258-0.173 0.41-0.378 0.752-0.615 1.025-0.237 0.283-0.428 0.492-0.574 0.629s-0.269 0.237-0.369 0.301c-0.009 0.009-0.036 0.027-0.082 0.055-0.046 0.036-0.082 0.059-0.109 0.068-0.118 0.055-0.223 0.087-0.314 0.096-0.128 0.018-0.223 0.027-0.287 0.027-0.438 0-0.784-0.146-1.039-0.438-0.21-0.255-0.296-0.542-0.26-0.861s0.196-0.579 0.479-0.779l0.027-0.027c0.018-0.018 0.041-0.041 0.068-0.068 0.027-0.018 0.059-0.046 0.096-0.082 0.046-0.036 0.087-0.077 0.123-0.123 0.046-0.046 0.087-0.096 0.123-0.15 0.046-0.055 0.087-0.114 0.123-0.178 0.046-0.055 0.087-0.118 0.123-0.191 0.046-0.073 0.082-0.146 0.109-0.219s0.050-0.155 0.068-0.246c0.018-0.082 0.027-0.164 0.027-0.246 0.027-0.292-0.046-0.583-0.219-0.875-0.073-0.155-0.182-0.314-0.328-0.479-0.1-0.118-0.173-0.196-0.219-0.232-0.137-0.164-0.21-0.251-0.219-0.26-0.027-0.018-0.064-0.046-0.109-0.082-0.036-0.036-0.064-0.059-0.082-0.068-0.219-0.201-0.383-0.374-0.492-0.52-0.182-0.228-0.301-0.383-0.355-0.465-0.283-0.383-0.474-0.761-0.574-1.135-0.064-0.21-0.1-0.365-0.109-0.465 0-0.027-0.009-0.064-0.027-0.109-0.018-0.055-0.027-0.1-0.027-0.137zM13.768 21.824c0-0.082 0.005-0.15 0.014-0.205 0.036-0.319 0.132-0.629 0.287-0.93 0.155-0.31 0.324-0.57 0.506-0.779 0.191-0.21 0.374-0.392 0.547-0.547 0.182-0.164 0.337-0.287 0.465-0.369l0.178-0.109c0.219-0.137 0.46-0.205 0.725-0.205 0.164 0 0.31 0.014 0.438 0.041 0.009 0 0.032 0.014 0.068 0.041 0.046 0.018 0.077 0.036 0.096 0.055 0.018 0 0.032 0.005 0.041 0.014 0.009 0 0.046 0.023 0.109 0.068 0.292 0.173 0.474 0.437 0.547 0.793 0 0.027 0 0.059 0 0.096 0.009 0.036 0.014 0.059 0.014 0.068 0 0.046-0.009 0.105-0.027 0.178-0.018 0.064-0.027 0.105-0.027 0.123-0.1 0.328-0.305 0.57-0.615 0.725-0.483 0.319-0.738 0.656-0.766 1.012-0.009 0.118-0.009 0.223 0 0.314 0.036 0.173 0.118 0.365 0.246 0.574 0.164 0.237 0.283 0.392 0.355 0.465 0.228 0.228 0.365 0.36 0.41 0.396 0.182 0.164 0.41 0.41 0.684 0.738 0.793 0.948 1.153 1.919 1.080 2.912-0.027 0.437-0.132 0.861-0.314 1.271-0.173 0.41-0.378 0.747-0.615 1.012-0.237 0.273-0.433 0.483-0.588 0.629s-0.278 0.246-0.369 0.301l-0.178 0.123c-0.155 0.055-0.255 0.087-0.301 0.096-0.164 0.018-0.26 0.027-0.287 0.027h-0.041c-0.118 0-0.21-0.009-0.273-0.027-0.027 0-0.068-0.009-0.123-0.027-0.046-0.009-0.077-0.014-0.096-0.014-0.009 0-0.023-0.005-0.041-0.014s-0.036-0.023-0.055-0.041c-0.018-0.009-0.032-0.014-0.041-0.014-0.219-0.155-0.346-0.255-0.383-0.301-0.228-0.264-0.319-0.556-0.273-0.875 0.046-0.31 0.21-0.565 0.492-0.766l0.041-0.055c0.036-0.027 0.077-0.068 0.123-0.123 0.055-0.046 0.114-0.1 0.178-0.164s0.123-0.141 0.178-0.232c0.064-0.091 0.123-0.187 0.178-0.287 0.055-0.091 0.096-0.196 0.123-0.314 0.036-0.118 0.059-0.237 0.068-0.355 0.018-0.583-0.319-1.199-1.012-1.846-0.273-0.246-0.488-0.456-0.643-0.629-0.811-0.957-1.185-1.905-1.121-2.844zM14.561 5.554v-3.021c0-0.355 0.123-0.656 0.369-0.902 0.255-0.246 0.556-0.369 0.902-0.369 0.355 0 0.656 0.123 0.902 0.369s0.369 0.547 0.369 0.902v3.021c0 0.346-0.123 0.633-0.369 0.861s-0.547 0.342-0.902 0.342c-0.346 0-0.647-0.114-0.902-0.342-0.246-0.228-0.369-0.515-0.369-0.861zM19.455 21.618c0.036-0.319 0.132-0.629 0.287-0.93 0.155-0.31 0.324-0.57 0.506-0.779 0.191-0.21 0.374-0.392 0.547-0.547 0.182-0.164 0.333-0.287 0.451-0.369l0.191-0.109c0.036-0.027 0.087-0.064 0.15-0.109 0.164-0.064 0.346-0.096 0.547-0.096 0.492 0 0.866 0.187 1.121 0.561 0.073 0.1 0.123 0.21 0.15 0.328 0.018 0.036 0.027 0.077 0.027 0.123v0.164c0 0.456-0.219 0.798-0.656 1.025-0.465 0.31-0.72 0.647-0.766 1.012-0.055 0.492 0.278 1.076 0.998 1.75 1.276 1.13 1.873 2.347 1.791 3.65-0.027 0.437-0.132 0.857-0.314 1.258-0.173 0.41-0.383 0.752-0.629 1.025-0.237 0.283-0.428 0.492-0.574 0.629-0.137 0.137-0.255 0.237-0.355 0.301-0.237 0.146-0.437 0.223-0.602 0.232-0.046 0.009-0.119 0.014-0.219 0.014-0.437 0-0.775-0.146-1.012-0.438-0.219-0.255-0.31-0.542-0.273-0.861s0.191-0.579 0.465-0.779c0.046-0.018 0.132-0.087 0.26-0.205s0.264-0.305 0.41-0.561c0.155-0.255 0.242-0.51 0.26-0.766 0.027-0.583-0.314-1.199-1.025-1.846-0.602-0.529-1.057-1.094-1.367-1.695-0.328-0.638-0.451-1.299-0.369-1.982zM22.791 8.89c0-0.365 0.109-0.656 0.328-0.875l2.133-2.16c0.264-0.246 0.561-0.369 0.889-0.369 0.346 0 0.643 0.128 0.889 0.383 0.255 0.246 0.383 0.542 0.383 0.889 0 0.365-0.128 0.665-0.383 0.902l-2.16 2.105c-0.264 0.246-0.561 0.369-0.889 0.369-0.337 0-0.62-0.119-0.848-0.355-0.228-0.246-0.342-0.542-0.342-0.889zM26.154 16.984c0-0.319 0.128-0.615 0.383-0.889 0.228-0.246 0.51-0.369 0.848-0.369h3.008c0.346 0 0.647 0.128 0.902 0.383 0.264 0.246 0.396 0.538 0.396 0.875 0 0.355-0.128 0.661-0.383 0.916-0.255 0.246-0.561 0.369-0.916 0.369h-3.008c-0.355 0-0.652-0.123-0.889-0.369-0.228-0.246-0.342-0.551-0.342-0.916z"></path>
</symbol>
<symbol id="icon-sun" viewBox="0 0 32 32">
<path fill="#fff" style="fill: var(--color1, #fff)" opacity="0.7" d="M0.333 16.126c0-0.355 0.123-0.656 0.369-0.902 0.255-0.237 0.547-0.355 0.875-0.355h2.98c0.337 0 0.615 0.123 0.834 0.369 0.228 0.246 0.342 0.542 0.342 0.889s-0.114 0.643-0.342 0.889c-0.219 0.237-0.497 0.355-0.834 0.355h-2.98c-0.337 0-0.629-0.123-0.875-0.369s-0.369-0.538-0.369-0.875zM4.503 26.229c0-0.337 0.114-0.633 0.342-0.889l2.146-2.078c0.219-0.228 0.506-0.342 0.861-0.342 0.346 0 0.633 0.109 0.861 0.328 0.237 0.219 0.355 0.497 0.355 0.834 0 0.355-0.118 0.665-0.355 0.93l-2.078 2.078c-0.592 0.465-1.189 0.465-1.791 0-0.228-0.246-0.342-0.533-0.342-0.861zM4.503 6.036c0-0.337 0.114-0.633 0.342-0.889 0.283-0.237 0.592-0.355 0.93-0.355 0.319 0 0.606 0.119 0.861 0.355l2.078 2.146c0.237 0.219 0.355 0.506 0.355 0.861 0 0.346-0.118 0.638-0.355 0.875-0.228 0.228-0.515 0.342-0.861 0.342-0.355 0-0.643-0.118-0.861-0.355l-2.146-2.078c-0.228-0.246-0.342-0.547-0.342-0.902zM8.222 16.126c0-1.358 0.342-2.62 1.025-3.787 0.684-1.176 1.609-2.105 2.775-2.789 1.176-0.684 2.443-1.025 3.801-1.025 1.021 0 2.001 0.205 2.939 0.615 0.939 0.401 1.745 0.943 2.42 1.627 0.684 0.674 1.226 1.481 1.627 2.42s0.602 1.919 0.602 2.939c0 1.367-0.342 2.634-1.025 3.801-0.674 1.167-1.595 2.092-2.762 2.775-1.167 0.675-2.434 1.012-3.801 1.012s-2.634-0.337-3.801-1.012c-1.167-0.684-2.092-1.609-2.775-2.775s-1.025-2.434-1.025-3.801zM10.697 16.126c0 1.422 0.497 2.639 1.49 3.65 1.003 1.003 2.215 1.504 3.637 1.504s2.634-0.501 3.637-1.504c1.012-1.012 1.518-2.229 1.518-3.65 0-1.404-0.506-2.602-1.518-3.596-1.003-0.993-2.215-1.49-3.637-1.49-1.413 0-2.62 0.497-3.623 1.49s-1.504 2.192-1.504 3.596zM14.579 27.46c0-0.346 0.119-0.638 0.355-0.875 0.246-0.237 0.542-0.355 0.889-0.355 0.355 0 0.652 0.118 0.889 0.355s0.355 0.529 0.355 0.875v2.898c0 0.355-0.123 0.656-0.369 0.902-0.237 0.246-0.529 0.369-0.875 0.369s-0.643-0.123-0.889-0.369c-0.237-0.246-0.355-0.547-0.355-0.902v-2.898zM14.579 4.86v-2.98c0-0.337 0.123-0.629 0.369-0.875s0.538-0.369 0.875-0.369c0.337 0 0.629 0.123 0.875 0.369s0.369 0.538 0.369 0.875v2.98c0 0.337-0.123 0.62-0.369 0.848-0.237 0.219-0.529 0.328-0.875 0.328s-0.643-0.109-0.889-0.328c-0.237-0.228-0.355-0.51-0.355-0.848zM22.632 24.083c0-0.337 0.109-0.611 0.328-0.82 0.219-0.228 0.492-0.342 0.82-0.342 0.355 0 0.647 0.114 0.875 0.342l2.133 2.078c0.237 0.255 0.355 0.551 0.355 0.889s-0.118 0.624-0.355 0.861c-0.583 0.456-1.167 0.456-1.75 0l-2.078-2.078c-0.219-0.246-0.328-0.556-0.328-0.93zM22.632 8.155c0-0.365 0.109-0.652 0.328-0.861l2.078-2.146c0.255-0.237 0.542-0.355 0.861-0.355 0.346 0 0.638 0.123 0.875 0.369 0.246 0.246 0.369 0.538 0.369 0.875 0 0.365-0.118 0.665-0.355 0.902l-2.133 2.078c-0.264 0.237-0.556 0.355-0.875 0.355-0.328 0-0.602-0.114-0.82-0.342-0.219-0.237-0.328-0.529-0.328-0.875zM26.269 17.014c-0.228-0.246-0.342-0.542-0.342-0.889s0.119-0.647 0.355-0.902c0.237-0.237 0.515-0.355 0.834-0.355h2.953c0.337 0 0.629 0.128 0.875 0.383 0.255 0.246 0.383 0.538 0.383 0.875s-0.128 0.629-0.383 0.875c-0.246 0.246-0.538 0.369-0.875 0.369h-2.953c-0.337 0-0.62-0.118-0.848-0.355z"></path>
</symbol>
<symbol id="icon-thunderstorm-icon" viewBox="0 0 32 32">
<path fill="#fff" style="fill: var(--color1, #fff)" opacity="0.7" d="M0 18.736c0 1.305 0.386 2.472 1.159 3.5 0.78 1.028 1.786 1.713 3.019 2.056l-0.766 1.98c-0.058 0.168-0.004 0.252 0.164 0.252h2.483l-1.662 4.911h0.339l5.086-6.606c0.044-0.051 0.051-0.106 0.022-0.164-0.029-0.051-0.084-0.077-0.164-0.077h-2.559l2.909-5.425c0.087-0.168 0.033-0.252-0.164-0.252h-3.456c-0.109 0-0.201 0.058-0.273 0.175l-1.247 3.358c-0.839-0.211-1.531-0.66-2.078-1.345-0.547-0.693-0.82-1.48-0.82-2.362 0-0.984 0.328-1.834 0.984-2.548s1.477-1.13 2.461-1.247l0.591-0.033c0.139 0 0.226-0.055 0.263-0.164l0.088-0.689c0.124-1.261 0.656-2.319 1.597-3.172 0.948-0.86 2.064-1.291 3.347-1.291 1.269 0 2.381 0.43 3.336 1.291 0.963 0.853 1.509 1.91 1.641 3.172l0.088 0.689c0 0.131 0.069 0.197 0.208 0.197h1.881c1.043 0 1.94 0.376 2.691 1.127 0.751 0.744 1.127 1.633 1.127 2.669 0 1.014-0.35 1.896-1.050 2.647-0.693 0.744-1.539 1.141-2.538 1.192-0.153 0-0.23 0.069-0.23 0.208v1.564c0 0.131 0.077 0.197 0.23 0.197 1.028-0.029 1.969-0.306 2.822-0.831 0.86-0.532 1.538-1.236 2.034-2.111 0.496-0.882 0.744-1.837 0.744-2.866 0-0.853-0.168-1.637-0.503-2.352 0.89-1.123 1.334-2.403 1.334-3.839 0-1.108-0.277-2.133-0.831-3.073-0.547-0.948-1.294-1.695-2.242-2.242-0.941-0.554-1.965-0.831-3.073-0.831-0.839 0-1.655 0.175-2.45 0.525-0.788 0.35-1.469 0.835-2.045 1.455-0.941-0.503-1.998-0.755-3.172-0.755-1.655 0-3.124 0.514-4.408 1.542-1.276 1.021-2.093 2.33-2.45 3.927-1.291 0.299-2.359 0.977-3.205 2.034-0.839 1.057-1.258 2.26-1.258 3.609zM9.198 30.658c0 0.197 0.062 0.386 0.186 0.569 0.124 0.19 0.314 0.321 0.569 0.394 0.102 0.022 0.197 0.033 0.284 0.033 0.503 0 0.813-0.237 0.93-0.711l0.153-0.689c0.073-0.299 0.040-0.565-0.098-0.798s-0.343-0.376-0.612-0.427c-0.248-0.080-0.492-0.055-0.733 0.077-0.241 0.139-0.401 0.339-0.481 0.602l-0.153 0.689c-0.029 0.131-0.044 0.219-0.044 0.262zM9.822 4.397c0 0.27 0.098 0.503 0.295 0.7l0.755 0.766c0.182 0.182 0.397 0.284 0.645 0.306 0.241 0.036 0.478-0.051 0.711-0.263s0.35-0.459 0.35-0.744c0-0.27-0.098-0.503-0.295-0.7l-0.733-0.766c-0.19-0.19-0.423-0.284-0.7-0.284-0.292 0-0.536 0.095-0.733 0.284s-0.295 0.423-0.295 0.7zM10.117 27.268c0 0.262 0.095 0.489 0.284 0.678s0.416 0.284 0.678 0.284c0.277 0 0.507-0.091 0.689-0.273s0.273-0.412 0.273-0.689c0-0.27-0.091-0.496-0.273-0.678s-0.412-0.273-0.689-0.273c-0.277 0-0.507 0.091-0.689 0.273s-0.273 0.408-0.273 0.678zM10.839 24.621c-0.015 0.175 0.036 0.357 0.153 0.547 0.124 0.19 0.303 0.306 0.536 0.35 0.27 0.073 0.518 0.051 0.744-0.066s0.386-0.335 0.481-0.656l0.306-1.050c0.080-0.255 0.051-0.499-0.087-0.733-0.131-0.233-0.335-0.39-0.613-0.47-0.255-0.080-0.503-0.047-0.744 0.098-0.241 0.139-0.401 0.343-0.481 0.613l-0.262 1.050c-0.022 0.095-0.033 0.201-0.033 0.317zM14.066 27.126c0 0.197 0.058 0.383 0.175 0.558 0.117 0.182 0.295 0.31 0.536 0.383 0.036 0 0.091 0.007 0.164 0.022s0.128 0.022 0.164 0.022c0.474 0 0.769-0.255 0.886-0.766l0.164-0.7c0.080-0.248 0.051-0.492-0.087-0.733-0.131-0.241-0.328-0.401-0.591-0.481-0.292-0.073-0.558-0.044-0.798 0.088-0.233 0.139-0.39 0.346-0.47 0.623l-0.109 0.689c0 0.015-0.007 0.058-0.022 0.131-0.007 0.073-0.011 0.128-0.011 0.164zM14.93 23.68c0 0.27 0.095 0.492 0.284 0.667 0.175 0.19 0.401 0.284 0.678 0.284s0.507-0.091 0.689-0.273 0.273-0.408 0.273-0.678c0-0.277-0.091-0.507-0.273-0.689s-0.412-0.273-0.689-0.273c-0.277 0-0.507 0.091-0.689 0.273s-0.273 0.412-0.273 0.689zM16.133 9.56c0.78-0.751 1.732-1.127 2.855-1.127 1.145 0 2.118 0.401 2.92 1.203 0.809 0.795 1.214 1.765 1.214 2.909 0 0.766-0.182 1.469-0.547 2.111-1.123-1.123-2.49-1.684-4.102-1.684h-0.361c-0.343-1.385-1.003-2.523-1.98-3.412zM17.992 3.413c0 0.277 0.095 0.514 0.284 0.711 0.197 0.197 0.434 0.295 0.711 0.295s0.507-0.095 0.689-0.284c0.19-0.197 0.284-0.438 0.284-0.722v-2.406c0-0.284-0.095-0.521-0.284-0.711-0.182-0.197-0.412-0.295-0.689-0.295s-0.514 0.098-0.711 0.295c-0.19 0.197-0.284 0.434-0.284 0.711v2.406zM24.773 5.382c-0.182 0.182-0.273 0.416-0.273 0.7s0.091 0.518 0.273 0.7c0.16 0.182 0.372 0.284 0.634 0.306 0.27 0.015 0.518-0.087 0.744-0.306l1.684-1.684c0.204-0.19 0.306-0.423 0.306-0.7s-0.102-0.51-0.306-0.7c-0.19-0.204-0.423-0.306-0.7-0.306-0.27 0-0.496 0.102-0.678 0.306l-1.684 1.684zM25.408 19.983c0 0.27 0.098 0.503 0.295 0.7l0.755 0.733c0.211 0.197 0.452 0.295 0.722 0.295l0.022 0.022c0.255 0 0.467-0.106 0.634-0.317 0.204-0.19 0.306-0.423 0.306-0.7 0-0.27-0.102-0.507-0.306-0.711l-0.722-0.722c-0.211-0.211-0.448-0.317-0.711-0.317-0.277 0-0.514 0.102-0.711 0.306-0.19 0.197-0.284 0.434-0.284 0.711zM27.114 12.546c0 0.284 0.102 0.514 0.306 0.689 0.182 0.204 0.416 0.306 0.7 0.306h2.406c0.277 0 0.514-0.095 0.711-0.284 0.197-0.197 0.295-0.434 0.295-0.711s-0.098-0.507-0.295-0.689c-0.19-0.19-0.427-0.284-0.711-0.284h-2.406c-0.284 0-0.525 0.095-0.722 0.284-0.19 0.182-0.284 0.412-0.284 0.689z"></path>
</symbol>
</defs>
</svg>
